G04 #@! TF.FileFunction,Profile,NP*
%FSLAX46Y46*%
G04 Gerber Fmt 4.6, Leading zero omitted, Abs format (unit mm)*
G04 Created by KiCad (PCBNEW 4.0.1-stable) date 2017/03/05 0:18:17*
%MOMM*%
G01*
G04 APERTURE LIST*
%ADD10C,0.100000*%
%ADD11C,0.150000*%
G04 APERTURE END LIST*
D10*
D11*
X218000000Y-138000000D02*
X198000000Y-138000000D01*
X218000000Y-137000000D02*
X218000000Y-122000000D01*
X198000000Y-122000000D02*
X198000000Y-137000000D01*
X198000000Y-137000000D02*
X218000000Y-137000000D01*
X198000000Y-153000000D02*
X218000000Y-153000000D01*
X218000000Y-153000000D02*
X218000000Y-138000000D01*
X198000000Y-138000000D02*
X198000000Y-153000000D01*
X218000000Y-122000000D02*
X198000000Y-122000000D01*
X177000000Y-138000000D02*
X177000000Y-153000000D01*
X197000000Y-137000000D02*
X197000000Y-122000000D01*
X197000000Y-122000000D02*
X177000000Y-122000000D01*
X177000000Y-137000000D02*
X197000000Y-137000000D01*
X177000000Y-153000000D02*
X197000000Y-153000000D01*
X197000000Y-153000000D02*
X197000000Y-138000000D01*
X197000000Y-138000000D02*
X177000000Y-138000000D01*
X177000000Y-122000000D02*
X177000000Y-137000000D01*
X155000000Y-153000000D02*
X155000000Y-138000000D01*
X135000000Y-122000000D02*
X135000000Y-137000000D01*
X155000000Y-122000000D02*
X135000000Y-122000000D01*
X135000000Y-137000000D02*
X155000000Y-137000000D01*
X135000000Y-153000000D02*
X155000000Y-153000000D01*
X135000000Y-138000000D02*
X135000000Y-153000000D01*
X155000000Y-138000000D02*
X135000000Y-138000000D01*
X155000000Y-137000000D02*
X155000000Y-122000000D01*
X176000000Y-138000000D02*
X156000000Y-138000000D01*
X156000000Y-122000000D02*
X156000000Y-137000000D01*
X176000000Y-137000000D02*
X176000000Y-122000000D01*
X156000000Y-137000000D02*
X176000000Y-137000000D01*
X176000000Y-153000000D02*
X176000000Y-138000000D01*
X156000000Y-153000000D02*
X176000000Y-153000000D01*
X156000000Y-138000000D02*
X156000000Y-153000000D01*
X176000000Y-122000000D02*
X156000000Y-122000000D01*
X218000000Y-106000000D02*
X198000000Y-106000000D01*
X218000000Y-121000000D02*
X218000000Y-106000000D01*
X198000000Y-106000000D02*
X198000000Y-121000000D01*
X198000000Y-121000000D02*
X218000000Y-121000000D01*
X177000000Y-106000000D02*
X177000000Y-121000000D01*
X197000000Y-121000000D02*
X197000000Y-106000000D01*
X197000000Y-106000000D02*
X177000000Y-106000000D01*
X177000000Y-121000000D02*
X197000000Y-121000000D01*
X155000000Y-121000000D02*
X155000000Y-106000000D01*
X135000000Y-106000000D02*
X135000000Y-121000000D01*
X155000000Y-106000000D02*
X135000000Y-106000000D01*
X135000000Y-121000000D02*
X155000000Y-121000000D01*
X176000000Y-106000000D02*
X156000000Y-106000000D01*
X156000000Y-106000000D02*
X156000000Y-121000000D01*
X176000000Y-121000000D02*
X176000000Y-106000000D01*
X156000000Y-121000000D02*
X176000000Y-121000000D01*
X155000000Y-90000000D02*
X135000000Y-90000000D01*
X155000000Y-105000000D02*
X155000000Y-90000000D01*
X135000000Y-105000000D02*
X155000000Y-105000000D01*
X135000000Y-90000000D02*
X135000000Y-105000000D01*
X176000000Y-90000000D02*
X156000000Y-90000000D01*
X176000000Y-105000000D02*
X176000000Y-90000000D01*
X156000000Y-105000000D02*
X176000000Y-105000000D01*
X156000000Y-90000000D02*
X156000000Y-105000000D01*
X197000000Y-90000000D02*
X177000000Y-90000000D01*
X197000000Y-105000000D02*
X197000000Y-90000000D01*
X177000000Y-105000000D02*
X197000000Y-105000000D01*
X177000000Y-90000000D02*
X177000000Y-105000000D01*
X218000000Y-90000000D02*
X198000000Y-90000000D01*
X218000000Y-105000000D02*
X218000000Y-90000000D01*
X198000000Y-105000000D02*
X218000000Y-105000000D01*
X198000000Y-90000000D02*
X198000000Y-105000000D01*
X155000000Y-90000000D02*
X135000000Y-90000000D01*
X155000000Y-105000000D02*
X155000000Y-90000000D01*
X135000000Y-105000000D02*
X155000000Y-105000000D01*
X135000000Y-90000000D02*
X135000000Y-105000000D01*
X155000000Y-74000000D02*
X135000000Y-74000000D01*
X155000000Y-89000000D02*
X155000000Y-74000000D01*
X135000000Y-89000000D02*
X155000000Y-89000000D01*
X135000000Y-74000000D02*
X135000000Y-89000000D01*
X176000000Y-74000000D02*
X156000000Y-74000000D01*
X176000000Y-89000000D02*
X176000000Y-74000000D01*
X156000000Y-89000000D02*
X176000000Y-89000000D01*
X156000000Y-74000000D02*
X156000000Y-89000000D01*
X197000000Y-74000000D02*
X177000000Y-74000000D01*
X197000000Y-89000000D02*
X197000000Y-74000000D01*
X177000000Y-89000000D02*
X197000000Y-89000000D01*
X177000000Y-74000000D02*
X177000000Y-89000000D01*
X218000000Y-74000000D02*
X198000000Y-74000000D01*
X218000000Y-89000000D02*
X218000000Y-74000000D01*
X198000000Y-89000000D02*
X218000000Y-89000000D01*
X198000000Y-74000000D02*
X198000000Y-89000000D01*
X155000000Y-58000000D02*
X135000000Y-58000000D01*
X155000000Y-73000000D02*
X155000000Y-58000000D01*
X135000000Y-73000000D02*
X155000000Y-73000000D01*
X135000000Y-58000000D02*
X135000000Y-73000000D01*
X176000000Y-58000000D02*
X156000000Y-58000000D01*
X176000000Y-73000000D02*
X176000000Y-58000000D01*
X156000000Y-73000000D02*
X176000000Y-73000000D01*
X156000000Y-58000000D02*
X156000000Y-73000000D01*
X197000000Y-58000000D02*
X177000000Y-58000000D01*
X197000000Y-73000000D02*
X197000000Y-58000000D01*
X177000000Y-73000000D02*
X197000000Y-73000000D01*
X177000000Y-58000000D02*
X177000000Y-73000000D01*
X218000000Y-58000000D02*
X198000000Y-58000000D01*
X218000000Y-73000000D02*
X218000000Y-58000000D01*
X198000000Y-73000000D02*
X218000000Y-73000000D01*
X198000000Y-58000000D02*
X198000000Y-73000000D01*
M02*
