G04 #@! TF.FileFunction,Paste,Bot*
%FSLAX46Y46*%
G04 Gerber Fmt 4.6, Leading zero omitted, Abs format (unit mm)*
G04 Created by KiCad (PCBNEW 4.0.1-stable) date 2017/03/05 0:18:17*
%MOMM*%
G01*
G04 APERTURE LIST*
%ADD10C,0.100000*%
%ADD11R,1.524000X3.048000*%
%ADD12O,1.524000X3.048000*%
G04 APERTURE END LIST*
D10*
D11*
X180650000Y-151000000D03*
D12*
X183190000Y-151000000D03*
X185730000Y-151000000D03*
X188270000Y-151000000D03*
X190810000Y-151000000D03*
X193350000Y-151000000D03*
D11*
X180650000Y-135000000D03*
D12*
X183190000Y-135000000D03*
X185730000Y-135000000D03*
X188270000Y-135000000D03*
X190810000Y-135000000D03*
X193350000Y-135000000D03*
D11*
X138650000Y-135000000D03*
D12*
X141190000Y-135000000D03*
X143730000Y-135000000D03*
X146270000Y-135000000D03*
X148810000Y-135000000D03*
X151350000Y-135000000D03*
D11*
X138650000Y-151000000D03*
D12*
X141190000Y-151000000D03*
X143730000Y-151000000D03*
X146270000Y-151000000D03*
X148810000Y-151000000D03*
X151350000Y-151000000D03*
D11*
X201650000Y-135000000D03*
D12*
X204190000Y-135000000D03*
X206730000Y-135000000D03*
X209270000Y-135000000D03*
X211810000Y-135000000D03*
X214350000Y-135000000D03*
D11*
X201650000Y-151000000D03*
D12*
X204190000Y-151000000D03*
X206730000Y-151000000D03*
X209270000Y-151000000D03*
X211810000Y-151000000D03*
X214350000Y-151000000D03*
D11*
X159650000Y-135000000D03*
D12*
X162190000Y-135000000D03*
X164730000Y-135000000D03*
X167270000Y-135000000D03*
X169810000Y-135000000D03*
X172350000Y-135000000D03*
D11*
X159650000Y-151000000D03*
D12*
X162190000Y-151000000D03*
X164730000Y-151000000D03*
X167270000Y-151000000D03*
X169810000Y-151000000D03*
X172350000Y-151000000D03*
D11*
X201650000Y-119000000D03*
D12*
X204190000Y-119000000D03*
X206730000Y-119000000D03*
X209270000Y-119000000D03*
X211810000Y-119000000D03*
X214350000Y-119000000D03*
D11*
X180650000Y-119000000D03*
D12*
X183190000Y-119000000D03*
X185730000Y-119000000D03*
X188270000Y-119000000D03*
X190810000Y-119000000D03*
X193350000Y-119000000D03*
D11*
X138650000Y-119000000D03*
D12*
X141190000Y-119000000D03*
X143730000Y-119000000D03*
X146270000Y-119000000D03*
X148810000Y-119000000D03*
X151350000Y-119000000D03*
D11*
X159650000Y-119000000D03*
D12*
X162190000Y-119000000D03*
X164730000Y-119000000D03*
X167270000Y-119000000D03*
X169810000Y-119000000D03*
X172350000Y-119000000D03*
D11*
X138650000Y-103000000D03*
D12*
X141190000Y-103000000D03*
X143730000Y-103000000D03*
X146270000Y-103000000D03*
X148810000Y-103000000D03*
X151350000Y-103000000D03*
D11*
X159650000Y-103000000D03*
D12*
X162190000Y-103000000D03*
X164730000Y-103000000D03*
X167270000Y-103000000D03*
X169810000Y-103000000D03*
X172350000Y-103000000D03*
D11*
X180650000Y-103000000D03*
D12*
X183190000Y-103000000D03*
X185730000Y-103000000D03*
X188270000Y-103000000D03*
X190810000Y-103000000D03*
X193350000Y-103000000D03*
D11*
X201650000Y-103000000D03*
D12*
X204190000Y-103000000D03*
X206730000Y-103000000D03*
X209270000Y-103000000D03*
X211810000Y-103000000D03*
X214350000Y-103000000D03*
D11*
X138650000Y-103000000D03*
D12*
X141190000Y-103000000D03*
X143730000Y-103000000D03*
X146270000Y-103000000D03*
X148810000Y-103000000D03*
X151350000Y-103000000D03*
D11*
X138650000Y-87000000D03*
D12*
X141190000Y-87000000D03*
X143730000Y-87000000D03*
X146270000Y-87000000D03*
X148810000Y-87000000D03*
X151350000Y-87000000D03*
D11*
X159650000Y-87000000D03*
D12*
X162190000Y-87000000D03*
X164730000Y-87000000D03*
X167270000Y-87000000D03*
X169810000Y-87000000D03*
X172350000Y-87000000D03*
D11*
X180650000Y-87000000D03*
D12*
X183190000Y-87000000D03*
X185730000Y-87000000D03*
X188270000Y-87000000D03*
X190810000Y-87000000D03*
X193350000Y-87000000D03*
D11*
X201650000Y-87000000D03*
D12*
X204190000Y-87000000D03*
X206730000Y-87000000D03*
X209270000Y-87000000D03*
X211810000Y-87000000D03*
X214350000Y-87000000D03*
D11*
X138650000Y-71000000D03*
D12*
X141190000Y-71000000D03*
X143730000Y-71000000D03*
X146270000Y-71000000D03*
X148810000Y-71000000D03*
X151350000Y-71000000D03*
D11*
X159650000Y-71000000D03*
D12*
X162190000Y-71000000D03*
X164730000Y-71000000D03*
X167270000Y-71000000D03*
X169810000Y-71000000D03*
X172350000Y-71000000D03*
D11*
X180650000Y-71000000D03*
D12*
X183190000Y-71000000D03*
X185730000Y-71000000D03*
X188270000Y-71000000D03*
X190810000Y-71000000D03*
X193350000Y-71000000D03*
D11*
X201650000Y-71000000D03*
D12*
X204190000Y-71000000D03*
X206730000Y-71000000D03*
X209270000Y-71000000D03*
X211810000Y-71000000D03*
X214350000Y-71000000D03*
M02*
