M48
;DRILL file {KiCad 4.0.1-stable} date 2017/03/05 0:18:19
;FORMAT={-:-/ absolute / metric / decimal}
FMAT,2
METRIC,TZ
T1C0.400
T2C1.016
T3C3.000
%
G90
G05
M71
T1
X136.4Y-70.
X136.4Y-86.
X136.4Y-102.
X136.4Y-102.
X136.4Y-118.
X136.4Y-134.
X136.4Y-150.
X141.2Y-59.8
X141.2Y-75.8
X141.2Y-91.8
X141.2Y-91.8
X141.2Y-107.8
X141.2Y-123.8
X141.2Y-139.8
X142.355Y-67.019
X142.355Y-83.019
X142.355Y-99.019
X142.355Y-99.019
X142.355Y-115.019
X142.355Y-131.019
X142.355Y-147.019
X144.251Y-63.236
X144.251Y-79.236
X144.251Y-95.236
X144.251Y-95.236
X144.251Y-111.236
X144.251Y-127.236
X144.251Y-143.237
X144.608Y-66.762
X144.608Y-82.762
X144.608Y-98.762
X144.608Y-98.762
X144.608Y-114.762
X144.608Y-130.762
X144.608Y-146.762
X146.101Y-63.232
X146.101Y-79.232
X146.101Y-95.232
X146.101Y-95.232
X146.101Y-111.232
X146.101Y-127.232
X146.101Y-143.232
X148.7Y-63.2
X148.7Y-79.2
X148.7Y-95.2
X148.7Y-95.2
X148.7Y-111.2
X148.7Y-127.2
X148.7Y-143.2
X153.5Y-70.5
X153.5Y-86.5
X153.5Y-102.5
X153.5Y-102.5
X153.5Y-118.5
X153.5Y-134.5
X153.5Y-150.5
X157.4Y-70.
X157.4Y-86.
X157.4Y-102.
X157.4Y-118.
X157.4Y-134.
X157.4Y-150.
X162.2Y-59.8
X162.2Y-75.8
X162.2Y-91.8
X162.2Y-107.8
X162.2Y-123.8
X162.2Y-139.8
X163.355Y-67.019
X163.355Y-83.019
X163.355Y-99.019
X163.355Y-115.019
X163.355Y-131.019
X163.355Y-147.019
X165.251Y-63.236
X165.251Y-79.236
X165.251Y-95.236
X165.251Y-111.236
X165.251Y-127.236
X165.251Y-143.237
X165.608Y-66.762
X165.608Y-82.762
X165.608Y-98.762
X165.608Y-114.762
X165.608Y-130.762
X165.608Y-146.762
X167.101Y-63.232
X167.101Y-79.232
X167.101Y-95.232
X167.101Y-111.232
X167.101Y-127.232
X167.101Y-143.232
X169.7Y-63.2
X169.7Y-79.2
X169.7Y-95.2
X169.7Y-111.2
X169.7Y-127.2
X169.7Y-143.2
X174.5Y-70.5
X174.5Y-86.5
X174.5Y-102.5
X174.5Y-118.5
X174.5Y-134.5
X174.5Y-150.5
X178.4Y-70.
X178.4Y-86.
X178.4Y-102.
X178.4Y-118.
X178.4Y-134.
X178.4Y-150.
X183.2Y-59.8
X183.2Y-75.8
X183.2Y-91.8
X183.2Y-107.8
X183.2Y-123.8
X183.2Y-139.8
X184.355Y-67.019
X184.355Y-83.019
X184.355Y-99.019
X184.355Y-115.019
X184.355Y-131.019
X184.355Y-147.019
X186.251Y-63.236
X186.251Y-79.236
X186.251Y-95.236
X186.251Y-111.236
X186.251Y-127.236
X186.251Y-143.237
X186.608Y-66.762
X186.608Y-82.762
X186.608Y-98.762
X186.608Y-114.762
X186.608Y-130.762
X186.608Y-146.762
X188.101Y-63.232
X188.101Y-79.232
X188.101Y-95.232
X188.101Y-111.232
X188.101Y-127.232
X188.101Y-143.232
X190.7Y-63.2
X190.7Y-79.2
X190.7Y-95.2
X190.7Y-111.2
X190.7Y-127.2
X190.7Y-143.2
X195.5Y-70.5
X195.5Y-86.5
X195.5Y-102.5
X195.5Y-118.5
X195.5Y-134.5
X195.5Y-150.5
X199.4Y-70.
X199.4Y-86.
X199.4Y-102.
X199.4Y-118.
X199.4Y-134.
X199.4Y-150.
X204.2Y-59.8
X204.2Y-75.8
X204.2Y-91.8
X204.2Y-107.8
X204.2Y-123.8
X204.2Y-139.8
X205.355Y-67.019
X205.355Y-83.019
X205.355Y-99.019
X205.355Y-115.019
X205.355Y-131.019
X205.355Y-147.019
X207.251Y-63.236
X207.251Y-79.236
X207.251Y-95.236
X207.251Y-111.236
X207.251Y-127.236
X207.251Y-143.237
X207.608Y-66.762
X207.608Y-82.762
X207.608Y-98.762
X207.608Y-114.762
X207.608Y-130.762
X207.608Y-146.762
X209.101Y-63.232
X209.101Y-79.232
X209.101Y-95.232
X209.101Y-111.232
X209.101Y-127.232
X209.101Y-143.232
X211.7Y-63.2
X211.7Y-79.2
X211.7Y-95.2
X211.7Y-111.2
X211.7Y-127.2
X211.7Y-143.2
X216.5Y-70.5
X216.5Y-86.5
X216.5Y-102.5
X216.5Y-118.5
X216.5Y-134.5
X216.5Y-150.5
T2
X138.65Y-71.
X138.65Y-87.
X138.65Y-103.
X138.65Y-103.
X138.65Y-119.
X138.65Y-135.
X138.65Y-151.
X141.19Y-71.
X141.19Y-87.
X141.19Y-103.
X141.19Y-103.
X141.19Y-119.
X141.19Y-135.
X141.19Y-151.
X143.73Y-71.
X143.73Y-87.
X143.73Y-103.
X143.73Y-103.
X143.73Y-119.
X143.73Y-135.
X143.73Y-151.
X146.27Y-71.
X146.27Y-87.
X146.27Y-103.
X146.27Y-103.
X146.27Y-119.
X146.27Y-135.
X146.27Y-151.
X148.81Y-71.
X148.81Y-87.
X148.81Y-103.
X148.81Y-103.
X148.81Y-119.
X148.81Y-135.
X148.81Y-151.
X151.35Y-71.
X151.35Y-87.
X151.35Y-103.
X151.35Y-103.
X151.35Y-119.
X151.35Y-135.
X151.35Y-151.
X159.65Y-71.
X159.65Y-87.
X159.65Y-103.
X159.65Y-119.
X159.65Y-135.
X159.65Y-151.
X162.19Y-71.
X162.19Y-87.
X162.19Y-103.
X162.19Y-119.
X162.19Y-135.
X162.19Y-151.
X164.73Y-71.
X164.73Y-87.
X164.73Y-103.
X164.73Y-119.
X164.73Y-135.
X164.73Y-151.
X167.27Y-71.
X167.27Y-87.
X167.27Y-103.
X167.27Y-119.
X167.27Y-135.
X167.27Y-151.
X169.81Y-71.
X169.81Y-87.
X169.81Y-103.
X169.81Y-119.
X169.81Y-135.
X169.81Y-151.
X172.35Y-71.
X172.35Y-87.
X172.35Y-103.
X172.35Y-119.
X172.35Y-135.
X172.35Y-151.
X180.65Y-71.
X180.65Y-87.
X180.65Y-103.
X180.65Y-119.
X180.65Y-135.
X180.65Y-151.
X183.19Y-71.
X183.19Y-87.
X183.19Y-103.
X183.19Y-119.
X183.19Y-135.
X183.19Y-151.
X185.73Y-71.
X185.73Y-87.
X185.73Y-103.
X185.73Y-119.
X185.73Y-135.
X185.73Y-151.
X188.27Y-71.
X188.27Y-87.
X188.27Y-103.
X188.27Y-119.
X188.27Y-135.
X188.27Y-151.
X190.81Y-71.
X190.81Y-87.
X190.81Y-103.
X190.81Y-119.
X190.81Y-135.
X190.81Y-151.
X193.35Y-71.
X193.35Y-87.
X193.35Y-103.
X193.35Y-119.
X193.35Y-135.
X193.35Y-151.
X201.65Y-71.
X201.65Y-87.
X201.65Y-103.
X201.65Y-119.
X201.65Y-135.
X201.65Y-151.
X204.19Y-71.
X204.19Y-87.
X204.19Y-103.
X204.19Y-119.
X204.19Y-135.
X204.19Y-151.
X206.73Y-71.
X206.73Y-87.
X206.73Y-103.
X206.73Y-119.
X206.73Y-135.
X206.73Y-151.
X209.27Y-71.
X209.27Y-87.
X209.27Y-103.
X209.27Y-119.
X209.27Y-135.
X209.27Y-151.
X211.81Y-71.
X211.81Y-87.
X211.81Y-103.
X211.81Y-119.
X211.81Y-135.
X211.81Y-151.
X214.35Y-71.
X214.35Y-87.
X214.35Y-103.
X214.35Y-119.
X214.35Y-135.
X214.35Y-151.
T3
X137.5Y-60.5
X137.5Y-76.5
X137.5Y-92.5
X137.5Y-92.5
X137.5Y-108.5
X137.5Y-124.5
X137.5Y-140.5
X152.5Y-60.5
X152.5Y-76.5
X152.5Y-92.5
X152.5Y-92.5
X152.5Y-108.5
X152.5Y-124.5
X152.5Y-140.5
X158.5Y-60.5
X158.5Y-76.5
X158.5Y-92.5
X158.5Y-108.5
X158.5Y-124.5
X158.5Y-140.5
X173.5Y-60.5
X173.5Y-76.5
X173.5Y-92.5
X173.5Y-108.5
X173.5Y-124.5
X173.5Y-140.5
X179.5Y-60.5
X179.5Y-76.5
X179.5Y-92.5
X179.5Y-108.5
X179.5Y-124.5
X179.5Y-140.5
X194.5Y-60.5
X194.5Y-76.5
X194.5Y-92.5
X194.5Y-108.5
X194.5Y-124.5
X194.5Y-140.5
X200.5Y-60.5
X200.5Y-76.5
X200.5Y-92.5
X200.5Y-108.5
X200.5Y-124.5
X200.5Y-140.5
X215.5Y-60.5
X215.5Y-76.5
X215.5Y-92.5
X215.5Y-108.5
X215.5Y-124.5
X215.5Y-140.5
T0
M30
