G04 #@! TF.FileFunction,Legend,Bot*
%FSLAX46Y46*%
G04 Gerber Fmt 4.6, Leading zero omitted, Abs format (unit mm)*
G04 Created by KiCad (PCBNEW 4.0.1-stable) date 2016/04/10 17:27:39*
%MOMM*%
G01*
G04 APERTURE LIST*
%ADD10C,0.100000*%
%ADD11C,0.300000*%
G04 APERTURE END LIST*
D10*
D11*
X152178571Y-96642857D02*
X150678571Y-96642857D01*
X151750000Y-97142857D01*
X150678571Y-97642857D01*
X152178571Y-97642857D01*
X150678571Y-98642857D02*
X150678571Y-98928571D01*
X150750000Y-99071429D01*
X150892857Y-99214286D01*
X151178571Y-99285714D01*
X151678571Y-99285714D01*
X151964286Y-99214286D01*
X152107143Y-99071429D01*
X152178571Y-98928571D01*
X152178571Y-98642857D01*
X152107143Y-98500000D01*
X151964286Y-98357143D01*
X151678571Y-98285714D01*
X151178571Y-98285714D01*
X150892857Y-98357143D01*
X150750000Y-98500000D01*
X150678571Y-98642857D01*
X152107143Y-99857143D02*
X152178571Y-100071429D01*
X152178571Y-100428572D01*
X152107143Y-100571429D01*
X152035714Y-100642858D01*
X151892857Y-100714286D01*
X151750000Y-100714286D01*
X151607143Y-100642858D01*
X151535714Y-100571429D01*
X151464286Y-100428572D01*
X151392857Y-100142858D01*
X151321429Y-100000000D01*
X151250000Y-99928572D01*
X151107143Y-99857143D01*
X150964286Y-99857143D01*
X150821429Y-99928572D01*
X150750000Y-100000000D01*
X150678571Y-100142858D01*
X150678571Y-100500000D01*
X150750000Y-100714286D01*
X152178571Y-101357143D02*
X150678571Y-101357143D01*
X149678571Y-96642857D02*
X148178571Y-96642857D01*
X149250000Y-97142857D01*
X148178571Y-97642857D01*
X149678571Y-97642857D01*
X149678571Y-98357143D02*
X148178571Y-98357143D01*
X149607143Y-99000000D02*
X149678571Y-99214286D01*
X149678571Y-99571429D01*
X149607143Y-99714286D01*
X149535714Y-99785715D01*
X149392857Y-99857143D01*
X149250000Y-99857143D01*
X149107143Y-99785715D01*
X149035714Y-99714286D01*
X148964286Y-99571429D01*
X148892857Y-99285715D01*
X148821429Y-99142857D01*
X148750000Y-99071429D01*
X148607143Y-99000000D01*
X148464286Y-99000000D01*
X148321429Y-99071429D01*
X148250000Y-99142857D01*
X148178571Y-99285715D01*
X148178571Y-99642857D01*
X148250000Y-99857143D01*
X148178571Y-100785714D02*
X148178571Y-101071428D01*
X148250000Y-101214286D01*
X148392857Y-101357143D01*
X148678571Y-101428571D01*
X149178571Y-101428571D01*
X149464286Y-101357143D01*
X149607143Y-101214286D01*
X149678571Y-101071428D01*
X149678571Y-100785714D01*
X149607143Y-100642857D01*
X149464286Y-100500000D01*
X149178571Y-100428571D01*
X148678571Y-100428571D01*
X148392857Y-100500000D01*
X148250000Y-100642857D01*
X148178571Y-100785714D01*
X147035714Y-98607143D02*
X147107143Y-98535714D01*
X147178571Y-98321428D01*
X147178571Y-98178571D01*
X147107143Y-97964286D01*
X146964286Y-97821428D01*
X146821429Y-97750000D01*
X146535714Y-97678571D01*
X146321429Y-97678571D01*
X146035714Y-97750000D01*
X145892857Y-97821428D01*
X145750000Y-97964286D01*
X145678571Y-98178571D01*
X145678571Y-98321428D01*
X145750000Y-98535714D01*
X145821429Y-98607143D01*
X147178571Y-99964286D02*
X147178571Y-99250000D01*
X145678571Y-99250000D01*
X147178571Y-100464286D02*
X145678571Y-100464286D01*
X147178571Y-101321429D02*
X146321429Y-100678572D01*
X145678571Y-101321429D02*
X146535714Y-100464286D01*
X144035714Y-99750001D02*
X144107143Y-99678572D01*
X144178571Y-99464286D01*
X144178571Y-99321429D01*
X144107143Y-99107144D01*
X143964286Y-98964286D01*
X143821429Y-98892858D01*
X143535714Y-98821429D01*
X143321429Y-98821429D01*
X143035714Y-98892858D01*
X142892857Y-98964286D01*
X142750000Y-99107144D01*
X142678571Y-99321429D01*
X142678571Y-99464286D01*
X142750000Y-99678572D01*
X142821429Y-99750001D01*
X144107143Y-100321429D02*
X144178571Y-100535715D01*
X144178571Y-100892858D01*
X144107143Y-101035715D01*
X144035714Y-101107144D01*
X143892857Y-101178572D01*
X143750000Y-101178572D01*
X143607143Y-101107144D01*
X143535714Y-101035715D01*
X143464286Y-100892858D01*
X143392857Y-100607144D01*
X143321429Y-100464286D01*
X143250000Y-100392858D01*
X143107143Y-100321429D01*
X142964286Y-100321429D01*
X142821429Y-100392858D01*
X142750000Y-100464286D01*
X142678571Y-100607144D01*
X142678571Y-100964286D01*
X142750000Y-101178572D01*
X140750000Y-97857143D02*
X140678571Y-97714286D01*
X140678571Y-97500000D01*
X140750000Y-97285715D01*
X140892857Y-97142857D01*
X141035714Y-97071429D01*
X141321429Y-97000000D01*
X141535714Y-97000000D01*
X141821429Y-97071429D01*
X141964286Y-97142857D01*
X142107143Y-97285715D01*
X142178571Y-97500000D01*
X142178571Y-97642857D01*
X142107143Y-97857143D01*
X142035714Y-97928572D01*
X141535714Y-97928572D01*
X141535714Y-97642857D01*
X142178571Y-98571429D02*
X140678571Y-98571429D01*
X142178571Y-99428572D01*
X140678571Y-99428572D01*
X142178571Y-100142858D02*
X140678571Y-100142858D01*
X140678571Y-100500001D01*
X140750000Y-100714286D01*
X140892857Y-100857144D01*
X141035714Y-100928572D01*
X141321429Y-101000001D01*
X141535714Y-101000001D01*
X141821429Y-100928572D01*
X141964286Y-100857144D01*
X142107143Y-100714286D01*
X142178571Y-100500001D01*
X142178571Y-100142858D01*
X138178571Y-98428572D02*
X138178571Y-99357143D01*
X138750000Y-98857143D01*
X138750000Y-99071429D01*
X138821429Y-99214286D01*
X138892857Y-99285715D01*
X139035714Y-99357143D01*
X139392857Y-99357143D01*
X139535714Y-99285715D01*
X139607143Y-99214286D01*
X139678571Y-99071429D01*
X139678571Y-98642857D01*
X139607143Y-98500000D01*
X139535714Y-98428572D01*
X139535714Y-100000000D02*
X139607143Y-100071428D01*
X139678571Y-100000000D01*
X139607143Y-99928571D01*
X139535714Y-100000000D01*
X139678571Y-100000000D01*
X138178571Y-100571429D02*
X138178571Y-101500000D01*
X138750000Y-101000000D01*
X138750000Y-101214286D01*
X138821429Y-101357143D01*
X138892857Y-101428572D01*
X139035714Y-101500000D01*
X139392857Y-101500000D01*
X139535714Y-101428572D01*
X139607143Y-101357143D01*
X139678571Y-101214286D01*
X139678571Y-100785714D01*
X139607143Y-100642857D01*
X139535714Y-100571429D01*
X149178571Y-92692857D02*
X148678571Y-92692857D01*
X148464285Y-93478571D02*
X149178571Y-93478571D01*
X149178571Y-91978571D01*
X148464285Y-91978571D01*
X147821428Y-92478571D02*
X147821428Y-93478571D01*
X147821428Y-92621429D02*
X147750000Y-92550000D01*
X147607142Y-92478571D01*
X147392857Y-92478571D01*
X147250000Y-92550000D01*
X147178571Y-92692857D01*
X147178571Y-93478571D01*
X145821428Y-93407143D02*
X145964285Y-93478571D01*
X146249999Y-93478571D01*
X146392857Y-93407143D01*
X146464285Y-93335714D01*
X146535714Y-93192857D01*
X146535714Y-92764286D01*
X146464285Y-92621429D01*
X146392857Y-92550000D01*
X146249999Y-92478571D01*
X145964285Y-92478571D01*
X145821428Y-92550000D01*
X144964285Y-93478571D02*
X145107143Y-93407143D01*
X145178571Y-93335714D01*
X145250000Y-93192857D01*
X145250000Y-92764286D01*
X145178571Y-92621429D01*
X145107143Y-92550000D01*
X144964285Y-92478571D01*
X144750000Y-92478571D01*
X144607143Y-92550000D01*
X144535714Y-92621429D01*
X144464285Y-92764286D01*
X144464285Y-93192857D01*
X144535714Y-93335714D01*
X144607143Y-93407143D01*
X144750000Y-93478571D01*
X144964285Y-93478571D01*
X143178571Y-93478571D02*
X143178571Y-91978571D01*
X143178571Y-93407143D02*
X143321428Y-93478571D01*
X143607142Y-93478571D01*
X143750000Y-93407143D01*
X143821428Y-93335714D01*
X143892857Y-93192857D01*
X143892857Y-92764286D01*
X143821428Y-92621429D01*
X143750000Y-92550000D01*
X143607142Y-92478571D01*
X143321428Y-92478571D01*
X143178571Y-92550000D01*
X141892857Y-93407143D02*
X142035714Y-93478571D01*
X142321428Y-93478571D01*
X142464285Y-93407143D01*
X142535714Y-93264286D01*
X142535714Y-92692857D01*
X142464285Y-92550000D01*
X142321428Y-92478571D01*
X142035714Y-92478571D01*
X141892857Y-92550000D01*
X141821428Y-92692857D01*
X141821428Y-92835714D01*
X142535714Y-92978571D01*
X141178571Y-93478571D02*
X141178571Y-92478571D01*
X141178571Y-92764286D02*
X141107143Y-92621429D01*
X141035714Y-92550000D01*
X140892857Y-92478571D01*
X140750000Y-92478571D01*
X146642856Y-94878571D02*
X146285713Y-95878571D01*
X145928571Y-94878571D01*
X144571428Y-95878571D02*
X145428571Y-95878571D01*
X144999999Y-95878571D02*
X144999999Y-94378571D01*
X145142856Y-94592857D01*
X145285714Y-94735714D01*
X145428571Y-94807143D01*
X143928571Y-95735714D02*
X143857143Y-95807143D01*
X143928571Y-95878571D01*
X144000000Y-95807143D01*
X143928571Y-95735714D01*
X143928571Y-95878571D01*
X142428571Y-95878571D02*
X143285714Y-95878571D01*
X142857142Y-95878571D02*
X142857142Y-94378571D01*
X142999999Y-94592857D01*
X143142857Y-94735714D01*
X143285714Y-94807143D01*
M02*
