G04 #@! TF.FileFunction,Copper,L1,Top,Signal*
%FSLAX46Y46*%
G04 Gerber Fmt 4.6, Leading zero omitted, Abs format (unit mm)*
G04 Created by KiCad (PCBNEW 4.0.1-stable) date 2016/04/10 17:27:39*
%MOMM*%
G01*
G04 APERTURE LIST*
%ADD10C,0.100000*%
%ADD11R,1.049020X1.079500*%
%ADD12R,0.347980X0.899160*%
%ADD13O,1.524000X3.048000*%
%ADD14R,0.998220X0.998220*%
%ADD15C,0.800000*%
%ADD16C,0.500000*%
%ADD17C,0.300000*%
%ADD18C,0.254000*%
G04 APERTURE END LIST*
D10*
D11*
X147626240Y-92000000D03*
X149373760Y-92000000D03*
X144873760Y-92000000D03*
X143126240Y-92000000D03*
D12*
X143051820Y-99872740D03*
X143702060Y-99872740D03*
X144352300Y-99872740D03*
X145000000Y-99872740D03*
X145647700Y-99872740D03*
X146297940Y-99872740D03*
X146948180Y-99872740D03*
X146948180Y-94127260D03*
X146297940Y-94127260D03*
X145647700Y-94127260D03*
X145000000Y-94127260D03*
X144352300Y-94127260D03*
X143702060Y-94127260D03*
X143051820Y-94127260D03*
D13*
X138650000Y-103000000D03*
X141190000Y-103000000D03*
X143730000Y-103000000D03*
X146270000Y-103000000D03*
X148810000Y-103000000D03*
X151350000Y-103000000D03*
D11*
X138873760Y-100000000D03*
X137126240Y-100000000D03*
X138873760Y-98000000D03*
X137126240Y-98000000D03*
X138873760Y-96000000D03*
X137126240Y-96000000D03*
X151126240Y-100000000D03*
X152873760Y-100000000D03*
X151126240Y-98000000D03*
X152873760Y-98000000D03*
X151126240Y-96000000D03*
X152873760Y-96000000D03*
D14*
X141500000Y-94500000D03*
D15*
X144250800Y-95236500D03*
X142355000Y-99018800D03*
X144608200Y-98762000D03*
X146101500Y-95232300D03*
X150250000Y-95000000D03*
D16*
X138650000Y-103000000D02*
X138650000Y-102159000D01*
D17*
X144874000Y-92000000D02*
X144873800Y-92000000D01*
X144873800Y-92000000D02*
X144873800Y-92944100D01*
D16*
X144874000Y-92000000D02*
X144969000Y-92000000D01*
D17*
X144969000Y-92000000D02*
X147626200Y-92000000D01*
X144352300Y-94127300D02*
X144352300Y-93273400D01*
X144873800Y-93273400D02*
X144873800Y-92944100D01*
X145000000Y-93273400D02*
X144873800Y-93273400D01*
X144873800Y-93273400D02*
X144352300Y-93273400D01*
X145000000Y-94127300D02*
X145000000Y-93273400D01*
X144352300Y-94127300D02*
X144352300Y-94981200D01*
X144250800Y-95082700D02*
X144250800Y-95236500D01*
X144352300Y-94981200D02*
X144250800Y-95082700D01*
X149373760Y-92000000D02*
X149373760Y-92500000D01*
X149373760Y-92500000D02*
X152873760Y-96000000D01*
X143455500Y-93273400D02*
X143126200Y-93250000D01*
X143702100Y-93273400D02*
X143455500Y-93273400D01*
X143702100Y-94127300D02*
X143702100Y-93273400D01*
X140182100Y-93250000D02*
X143126200Y-93250000D01*
X137126200Y-96000000D02*
X140182100Y-93250000D01*
X143126200Y-92000000D02*
X143126200Y-92472000D01*
X143126200Y-92472000D02*
X143126200Y-93250000D01*
X148429600Y-91055800D02*
X149373800Y-92000000D01*
X144170900Y-91055800D02*
X148429600Y-91055800D01*
X143126200Y-92100500D02*
X144170900Y-91055800D01*
X143126200Y-92472000D02*
X143126200Y-92100500D01*
X141190000Y-103000000D02*
X141190000Y-101071700D01*
X138197900Y-101071700D02*
X137126200Y-100000000D01*
X141190000Y-101071700D02*
X138197900Y-101071700D01*
X137126200Y-96000000D02*
X137126200Y-98000000D01*
X137126200Y-98000000D02*
X137126200Y-100000000D01*
X152873800Y-96000000D02*
X152873800Y-98000000D01*
X152873800Y-98000000D02*
X152873800Y-100000000D01*
X143396900Y-101071700D02*
X143051800Y-100726600D01*
X143730000Y-101071700D02*
X143396900Y-101071700D01*
X143730000Y-103000000D02*
X143730000Y-101071700D01*
X143051800Y-99872700D02*
X143051800Y-100726600D01*
X143702100Y-99872700D02*
X143702100Y-99018800D01*
X143702100Y-99018800D02*
X142355000Y-99018800D01*
X144352300Y-99017900D02*
X144608200Y-98762000D01*
X144352300Y-99872700D02*
X144352300Y-99017900D01*
D16*
X151350000Y-103000000D02*
X151350000Y-102766000D01*
D17*
X149310600Y-100726600D02*
X151350000Y-102766000D01*
X145000000Y-100726600D02*
X149310600Y-100726600D01*
X145000000Y-99872700D02*
X145000000Y-100726600D01*
X138873800Y-100000000D02*
X139802600Y-100000000D01*
X141885800Y-97916800D02*
X139802600Y-100000000D01*
X144949300Y-97916800D02*
X141885800Y-97916800D01*
X145647700Y-98615200D02*
X144949300Y-97916800D01*
X145647700Y-99872700D02*
X145647700Y-98615200D01*
X138873800Y-98000000D02*
X139802600Y-98000000D01*
X140473000Y-97329600D02*
X139802600Y-98000000D01*
X145157100Y-97329600D02*
X140473000Y-97329600D01*
X146297900Y-98470400D02*
X145157100Y-97329600D01*
X146297900Y-99872700D02*
X146297900Y-98470400D01*
X138873800Y-96000000D02*
X139802600Y-96000000D01*
X139921700Y-96119100D02*
X139802600Y-96000000D01*
X144782200Y-96119100D02*
X139921700Y-96119100D01*
X146948200Y-98285100D02*
X144782200Y-96119100D01*
X146948200Y-99872700D02*
X146948200Y-98285100D01*
X146948200Y-96750800D02*
X150197400Y-100000000D01*
X146948200Y-94127300D02*
X146948200Y-96750800D01*
X151126200Y-100000000D02*
X150197400Y-100000000D01*
X150197400Y-96177900D02*
X150197400Y-98000000D01*
X147292900Y-93273400D02*
X150197400Y-96177900D01*
X146297900Y-93273400D02*
X147292900Y-93273400D01*
X146297900Y-94127300D02*
X146297900Y-93273400D01*
X151126200Y-98000000D02*
X150197400Y-98000000D01*
X151126200Y-96000000D02*
X151126240Y-96000000D01*
X150531000Y-95281000D02*
X151126240Y-96000000D01*
X150250000Y-95000000D02*
X150531000Y-95281000D01*
X145647700Y-94127300D02*
X145647700Y-94981200D01*
X145850400Y-94981200D02*
X146101500Y-95232300D01*
X145647700Y-94981200D02*
X145850400Y-94981200D01*
X141500000Y-94500000D02*
X142679080Y-94500000D01*
X142679080Y-94500000D02*
X143051820Y-94127260D01*
D18*
G36*
X150691091Y-91289041D02*
X150533270Y-91669116D01*
X150533270Y-91333940D01*
X150436597Y-91100551D01*
X150257968Y-90921923D01*
X150024579Y-90825250D01*
X149659510Y-90825250D01*
X149500760Y-90984000D01*
X149500760Y-91873000D01*
X149520760Y-91873000D01*
X149520760Y-92127000D01*
X149500760Y-92127000D01*
X149500760Y-93016000D01*
X149659510Y-93174750D01*
X150024579Y-93174750D01*
X150257968Y-93078077D01*
X150378840Y-92957206D01*
X150688980Y-93707800D01*
X151289041Y-94308909D01*
X152073459Y-94634628D01*
X152922815Y-94635370D01*
X153707800Y-94311020D01*
X154290000Y-93729835D01*
X154290000Y-104290000D01*
X152650388Y-104290000D01*
X152747000Y-103804297D01*
X152747000Y-102195703D01*
X152640660Y-101661094D01*
X152337828Y-101207875D01*
X152288253Y-101174750D01*
X152588010Y-101174750D01*
X152746760Y-101016000D01*
X152746760Y-100127000D01*
X153000760Y-100127000D01*
X153000760Y-101016000D01*
X153159510Y-101174750D01*
X153524579Y-101174750D01*
X153757968Y-101078077D01*
X153936597Y-100899449D01*
X154033270Y-100666060D01*
X154033270Y-100285750D01*
X153874520Y-100127000D01*
X153000760Y-100127000D01*
X152746760Y-100127000D01*
X152726760Y-100127000D01*
X152726760Y-99873000D01*
X152746760Y-99873000D01*
X152746760Y-98127000D01*
X153000760Y-98127000D01*
X153000760Y-99873000D01*
X153874520Y-99873000D01*
X154033270Y-99714250D01*
X154033270Y-99333940D01*
X153936597Y-99100551D01*
X153836045Y-99000000D01*
X153936597Y-98899449D01*
X154033270Y-98666060D01*
X154033270Y-98285750D01*
X153874520Y-98127000D01*
X153000760Y-98127000D01*
X152746760Y-98127000D01*
X152726760Y-98127000D01*
X152726760Y-97873000D01*
X152746760Y-97873000D01*
X152746760Y-96127000D01*
X153000760Y-96127000D01*
X153000760Y-97873000D01*
X153874520Y-97873000D01*
X154033270Y-97714250D01*
X154033270Y-97333940D01*
X153936597Y-97100551D01*
X153836045Y-97000000D01*
X153936597Y-96899449D01*
X154033270Y-96666060D01*
X154033270Y-96285750D01*
X153874520Y-96127000D01*
X153000760Y-96127000D01*
X152746760Y-96127000D01*
X152726760Y-96127000D01*
X152726760Y-95873000D01*
X152746760Y-95873000D01*
X152746760Y-94984000D01*
X153000760Y-94984000D01*
X153000760Y-95873000D01*
X153874520Y-95873000D01*
X154033270Y-95714250D01*
X154033270Y-95333940D01*
X153936597Y-95100551D01*
X153757968Y-94921923D01*
X153524579Y-94825250D01*
X153159510Y-94825250D01*
X153000760Y-94984000D01*
X152746760Y-94984000D01*
X152588010Y-94825250D01*
X152222941Y-94825250D01*
X151989552Y-94921923D01*
X151988791Y-94922684D01*
X151902640Y-94863819D01*
X151650750Y-94812810D01*
X151285163Y-94812810D01*
X151285179Y-94795029D01*
X151127942Y-94414485D01*
X150837046Y-94123081D01*
X150456777Y-93965180D01*
X150045029Y-93964821D01*
X149664485Y-94122058D01*
X149457920Y-94328262D01*
X148290544Y-93160886D01*
X148386067Y-93142912D01*
X148488484Y-93077009D01*
X148489552Y-93078077D01*
X148722941Y-93174750D01*
X149088010Y-93174750D01*
X149246760Y-93016000D01*
X149246760Y-92127000D01*
X149226760Y-92127000D01*
X149226760Y-91873000D01*
X149246760Y-91873000D01*
X149246760Y-90984000D01*
X149088010Y-90825250D01*
X148722941Y-90825250D01*
X148489552Y-90921923D01*
X148488791Y-90922684D01*
X148402640Y-90863819D01*
X148150750Y-90812810D01*
X147101730Y-90812810D01*
X146866413Y-90857088D01*
X146650289Y-90996160D01*
X146505299Y-91208360D01*
X146503954Y-91215000D01*
X145995040Y-91215000D01*
X145862360Y-91008809D01*
X145650160Y-90863819D01*
X145398270Y-90812810D01*
X144349250Y-90812810D01*
X144113933Y-90857088D01*
X144011516Y-90922991D01*
X144010448Y-90921923D01*
X143777059Y-90825250D01*
X143411990Y-90825250D01*
X143253240Y-90984000D01*
X143253240Y-91873000D01*
X143273240Y-91873000D01*
X143273240Y-92127000D01*
X143253240Y-92127000D01*
X143253240Y-92147000D01*
X142999240Y-92147000D01*
X142999240Y-92127000D01*
X142125480Y-92127000D01*
X141966730Y-92285750D01*
X141966730Y-92666060D01*
X142063403Y-92899449D01*
X142242032Y-93078077D01*
X142475421Y-93174750D01*
X142486748Y-93174750D01*
X142426389Y-93213590D01*
X142281660Y-93425408D01*
X142251000Y-93404459D01*
X141999110Y-93353450D01*
X141000890Y-93353450D01*
X140765573Y-93397728D01*
X140549449Y-93536800D01*
X140404459Y-93749000D01*
X140353450Y-94000890D01*
X140353450Y-94999110D01*
X140397728Y-95234427D01*
X140461866Y-95334100D01*
X140191823Y-95334100D01*
X140103007Y-95274755D01*
X140007222Y-95255702D01*
X140001432Y-95224933D01*
X139862360Y-95008809D01*
X139650160Y-94863819D01*
X139398270Y-94812810D01*
X138349250Y-94812810D01*
X138113933Y-94857088D01*
X138011516Y-94922991D01*
X138010448Y-94921923D01*
X137777059Y-94825250D01*
X137411990Y-94825250D01*
X137253240Y-94984000D01*
X137253240Y-95873000D01*
X137273240Y-95873000D01*
X137273240Y-96127000D01*
X137253240Y-96127000D01*
X137253240Y-97873000D01*
X137273240Y-97873000D01*
X137273240Y-98127000D01*
X137253240Y-98127000D01*
X137253240Y-99873000D01*
X137273240Y-99873000D01*
X137273240Y-100127000D01*
X137253240Y-100127000D01*
X137253240Y-101016000D01*
X137411990Y-101174750D01*
X137711747Y-101174750D01*
X137662172Y-101207875D01*
X137359340Y-101661094D01*
X137253000Y-102195703D01*
X137253000Y-103804297D01*
X137349612Y-104290000D01*
X135710000Y-104290000D01*
X135710000Y-100285750D01*
X135966730Y-100285750D01*
X135966730Y-100666060D01*
X136063403Y-100899449D01*
X136242032Y-101078077D01*
X136475421Y-101174750D01*
X136840490Y-101174750D01*
X136999240Y-101016000D01*
X136999240Y-100127000D01*
X136125480Y-100127000D01*
X135966730Y-100285750D01*
X135710000Y-100285750D01*
X135710000Y-98285750D01*
X135966730Y-98285750D01*
X135966730Y-98666060D01*
X136063403Y-98899449D01*
X136163955Y-99000000D01*
X136063403Y-99100551D01*
X135966730Y-99333940D01*
X135966730Y-99714250D01*
X136125480Y-99873000D01*
X136999240Y-99873000D01*
X136999240Y-98127000D01*
X136125480Y-98127000D01*
X135966730Y-98285750D01*
X135710000Y-98285750D01*
X135710000Y-96285750D01*
X135966730Y-96285750D01*
X135966730Y-96666060D01*
X136063403Y-96899449D01*
X136163955Y-97000000D01*
X136063403Y-97100551D01*
X135966730Y-97333940D01*
X135966730Y-97714250D01*
X136125480Y-97873000D01*
X136999240Y-97873000D01*
X136999240Y-96127000D01*
X136125480Y-96127000D01*
X135966730Y-96285750D01*
X135710000Y-96285750D01*
X135710000Y-95333940D01*
X135966730Y-95333940D01*
X135966730Y-95714250D01*
X136125480Y-95873000D01*
X136999240Y-95873000D01*
X136999240Y-94984000D01*
X136840490Y-94825250D01*
X136475421Y-94825250D01*
X136242032Y-94921923D01*
X136063403Y-95100551D01*
X135966730Y-95333940D01*
X135710000Y-95333940D01*
X135710000Y-93728857D01*
X136289041Y-94308909D01*
X137073459Y-94634628D01*
X137922815Y-94635370D01*
X138707800Y-94311020D01*
X139308909Y-93710959D01*
X139634628Y-92926541D01*
X139635370Y-92077185D01*
X139328267Y-91333940D01*
X141966730Y-91333940D01*
X141966730Y-91714250D01*
X142125480Y-91873000D01*
X142999240Y-91873000D01*
X142999240Y-90984000D01*
X142840490Y-90825250D01*
X142475421Y-90825250D01*
X142242032Y-90921923D01*
X142063403Y-91100551D01*
X141966730Y-91333940D01*
X139328267Y-91333940D01*
X139311020Y-91292200D01*
X138729835Y-90710000D01*
X151271143Y-90710000D01*
X150691091Y-91289041D01*
X150691091Y-91289041D01*
G37*
X150691091Y-91289041D02*
X150533270Y-91669116D01*
X150533270Y-91333940D01*
X150436597Y-91100551D01*
X150257968Y-90921923D01*
X150024579Y-90825250D01*
X149659510Y-90825250D01*
X149500760Y-90984000D01*
X149500760Y-91873000D01*
X149520760Y-91873000D01*
X149520760Y-92127000D01*
X149500760Y-92127000D01*
X149500760Y-93016000D01*
X149659510Y-93174750D01*
X150024579Y-93174750D01*
X150257968Y-93078077D01*
X150378840Y-92957206D01*
X150688980Y-93707800D01*
X151289041Y-94308909D01*
X152073459Y-94634628D01*
X152922815Y-94635370D01*
X153707800Y-94311020D01*
X154290000Y-93729835D01*
X154290000Y-104290000D01*
X152650388Y-104290000D01*
X152747000Y-103804297D01*
X152747000Y-102195703D01*
X152640660Y-101661094D01*
X152337828Y-101207875D01*
X152288253Y-101174750D01*
X152588010Y-101174750D01*
X152746760Y-101016000D01*
X152746760Y-100127000D01*
X153000760Y-100127000D01*
X153000760Y-101016000D01*
X153159510Y-101174750D01*
X153524579Y-101174750D01*
X153757968Y-101078077D01*
X153936597Y-100899449D01*
X154033270Y-100666060D01*
X154033270Y-100285750D01*
X153874520Y-100127000D01*
X153000760Y-100127000D01*
X152746760Y-100127000D01*
X152726760Y-100127000D01*
X152726760Y-99873000D01*
X152746760Y-99873000D01*
X152746760Y-98127000D01*
X153000760Y-98127000D01*
X153000760Y-99873000D01*
X153874520Y-99873000D01*
X154033270Y-99714250D01*
X154033270Y-99333940D01*
X153936597Y-99100551D01*
X153836045Y-99000000D01*
X153936597Y-98899449D01*
X154033270Y-98666060D01*
X154033270Y-98285750D01*
X153874520Y-98127000D01*
X153000760Y-98127000D01*
X152746760Y-98127000D01*
X152726760Y-98127000D01*
X152726760Y-97873000D01*
X152746760Y-97873000D01*
X152746760Y-96127000D01*
X153000760Y-96127000D01*
X153000760Y-97873000D01*
X153874520Y-97873000D01*
X154033270Y-97714250D01*
X154033270Y-97333940D01*
X153936597Y-97100551D01*
X153836045Y-97000000D01*
X153936597Y-96899449D01*
X154033270Y-96666060D01*
X154033270Y-96285750D01*
X153874520Y-96127000D01*
X153000760Y-96127000D01*
X152746760Y-96127000D01*
X152726760Y-96127000D01*
X152726760Y-95873000D01*
X152746760Y-95873000D01*
X152746760Y-94984000D01*
X153000760Y-94984000D01*
X153000760Y-95873000D01*
X153874520Y-95873000D01*
X154033270Y-95714250D01*
X154033270Y-95333940D01*
X153936597Y-95100551D01*
X153757968Y-94921923D01*
X153524579Y-94825250D01*
X153159510Y-94825250D01*
X153000760Y-94984000D01*
X152746760Y-94984000D01*
X152588010Y-94825250D01*
X152222941Y-94825250D01*
X151989552Y-94921923D01*
X151988791Y-94922684D01*
X151902640Y-94863819D01*
X151650750Y-94812810D01*
X151285163Y-94812810D01*
X151285179Y-94795029D01*
X151127942Y-94414485D01*
X150837046Y-94123081D01*
X150456777Y-93965180D01*
X150045029Y-93964821D01*
X149664485Y-94122058D01*
X149457920Y-94328262D01*
X148290544Y-93160886D01*
X148386067Y-93142912D01*
X148488484Y-93077009D01*
X148489552Y-93078077D01*
X148722941Y-93174750D01*
X149088010Y-93174750D01*
X149246760Y-93016000D01*
X149246760Y-92127000D01*
X149226760Y-92127000D01*
X149226760Y-91873000D01*
X149246760Y-91873000D01*
X149246760Y-90984000D01*
X149088010Y-90825250D01*
X148722941Y-90825250D01*
X148489552Y-90921923D01*
X148488791Y-90922684D01*
X148402640Y-90863819D01*
X148150750Y-90812810D01*
X147101730Y-90812810D01*
X146866413Y-90857088D01*
X146650289Y-90996160D01*
X146505299Y-91208360D01*
X146503954Y-91215000D01*
X145995040Y-91215000D01*
X145862360Y-91008809D01*
X145650160Y-90863819D01*
X145398270Y-90812810D01*
X144349250Y-90812810D01*
X144113933Y-90857088D01*
X144011516Y-90922991D01*
X144010448Y-90921923D01*
X143777059Y-90825250D01*
X143411990Y-90825250D01*
X143253240Y-90984000D01*
X143253240Y-91873000D01*
X143273240Y-91873000D01*
X143273240Y-92127000D01*
X143253240Y-92127000D01*
X143253240Y-92147000D01*
X142999240Y-92147000D01*
X142999240Y-92127000D01*
X142125480Y-92127000D01*
X141966730Y-92285750D01*
X141966730Y-92666060D01*
X142063403Y-92899449D01*
X142242032Y-93078077D01*
X142475421Y-93174750D01*
X142486748Y-93174750D01*
X142426389Y-93213590D01*
X142281660Y-93425408D01*
X142251000Y-93404459D01*
X141999110Y-93353450D01*
X141000890Y-93353450D01*
X140765573Y-93397728D01*
X140549449Y-93536800D01*
X140404459Y-93749000D01*
X140353450Y-94000890D01*
X140353450Y-94999110D01*
X140397728Y-95234427D01*
X140461866Y-95334100D01*
X140191823Y-95334100D01*
X140103007Y-95274755D01*
X140007222Y-95255702D01*
X140001432Y-95224933D01*
X139862360Y-95008809D01*
X139650160Y-94863819D01*
X139398270Y-94812810D01*
X138349250Y-94812810D01*
X138113933Y-94857088D01*
X138011516Y-94922991D01*
X138010448Y-94921923D01*
X137777059Y-94825250D01*
X137411990Y-94825250D01*
X137253240Y-94984000D01*
X137253240Y-95873000D01*
X137273240Y-95873000D01*
X137273240Y-96127000D01*
X137253240Y-96127000D01*
X137253240Y-97873000D01*
X137273240Y-97873000D01*
X137273240Y-98127000D01*
X137253240Y-98127000D01*
X137253240Y-99873000D01*
X137273240Y-99873000D01*
X137273240Y-100127000D01*
X137253240Y-100127000D01*
X137253240Y-101016000D01*
X137411990Y-101174750D01*
X137711747Y-101174750D01*
X137662172Y-101207875D01*
X137359340Y-101661094D01*
X137253000Y-102195703D01*
X137253000Y-103804297D01*
X137349612Y-104290000D01*
X135710000Y-104290000D01*
X135710000Y-100285750D01*
X135966730Y-100285750D01*
X135966730Y-100666060D01*
X136063403Y-100899449D01*
X136242032Y-101078077D01*
X136475421Y-101174750D01*
X136840490Y-101174750D01*
X136999240Y-101016000D01*
X136999240Y-100127000D01*
X136125480Y-100127000D01*
X135966730Y-100285750D01*
X135710000Y-100285750D01*
X135710000Y-98285750D01*
X135966730Y-98285750D01*
X135966730Y-98666060D01*
X136063403Y-98899449D01*
X136163955Y-99000000D01*
X136063403Y-99100551D01*
X135966730Y-99333940D01*
X135966730Y-99714250D01*
X136125480Y-99873000D01*
X136999240Y-99873000D01*
X136999240Y-98127000D01*
X136125480Y-98127000D01*
X135966730Y-98285750D01*
X135710000Y-98285750D01*
X135710000Y-96285750D01*
X135966730Y-96285750D01*
X135966730Y-96666060D01*
X136063403Y-96899449D01*
X136163955Y-97000000D01*
X136063403Y-97100551D01*
X135966730Y-97333940D01*
X135966730Y-97714250D01*
X136125480Y-97873000D01*
X136999240Y-97873000D01*
X136999240Y-96127000D01*
X136125480Y-96127000D01*
X135966730Y-96285750D01*
X135710000Y-96285750D01*
X135710000Y-95333940D01*
X135966730Y-95333940D01*
X135966730Y-95714250D01*
X136125480Y-95873000D01*
X136999240Y-95873000D01*
X136999240Y-94984000D01*
X136840490Y-94825250D01*
X136475421Y-94825250D01*
X136242032Y-94921923D01*
X136063403Y-95100551D01*
X135966730Y-95333940D01*
X135710000Y-95333940D01*
X135710000Y-93728857D01*
X136289041Y-94308909D01*
X137073459Y-94634628D01*
X137922815Y-94635370D01*
X138707800Y-94311020D01*
X139308909Y-93710959D01*
X139634628Y-92926541D01*
X139635370Y-92077185D01*
X139328267Y-91333940D01*
X141966730Y-91333940D01*
X141966730Y-91714250D01*
X142125480Y-91873000D01*
X142999240Y-91873000D01*
X142999240Y-90984000D01*
X142840490Y-90825250D01*
X142475421Y-90825250D01*
X142242032Y-90921923D01*
X142063403Y-91100551D01*
X141966730Y-91333940D01*
X139328267Y-91333940D01*
X139311020Y-91292200D01*
X138729835Y-90710000D01*
X151271143Y-90710000D01*
X150691091Y-91289041D01*
G36*
X141477058Y-99604315D02*
X141767954Y-99895719D01*
X142148223Y-100053620D01*
X142230390Y-100053692D01*
X142230390Y-100322320D01*
X142266800Y-100515822D01*
X142266800Y-100726600D01*
X142326555Y-101027007D01*
X142496721Y-101281679D01*
X142614296Y-101399254D01*
X142449651Y-101645662D01*
X142432059Y-101586059D01*
X142088026Y-101160370D01*
X141607277Y-100898740D01*
X141533070Y-100883780D01*
X141317000Y-101006280D01*
X141317000Y-102873000D01*
X141337000Y-102873000D01*
X141337000Y-103127000D01*
X141317000Y-103127000D01*
X141317000Y-103147000D01*
X141063000Y-103147000D01*
X141063000Y-103127000D01*
X141043000Y-103127000D01*
X141043000Y-102873000D01*
X141063000Y-102873000D01*
X141063000Y-101006280D01*
X140846930Y-100883780D01*
X140772723Y-100898740D01*
X140291974Y-101160370D01*
X139947941Y-101586059D01*
X139930349Y-101645662D01*
X139637828Y-101207875D01*
X139561035Y-101156564D01*
X139633587Y-101142912D01*
X139849711Y-101003840D01*
X139994701Y-100791640D01*
X140004165Y-100744906D01*
X140103007Y-100725245D01*
X140357679Y-100555079D01*
X141427758Y-99485000D01*
X141477058Y-99604315D01*
X141477058Y-99604315D01*
G37*
X141477058Y-99604315D02*
X141767954Y-99895719D01*
X142148223Y-100053620D01*
X142230390Y-100053692D01*
X142230390Y-100322320D01*
X142266800Y-100515822D01*
X142266800Y-100726600D01*
X142326555Y-101027007D01*
X142496721Y-101281679D01*
X142614296Y-101399254D01*
X142449651Y-101645662D01*
X142432059Y-101586059D01*
X142088026Y-101160370D01*
X141607277Y-100898740D01*
X141533070Y-100883780D01*
X141317000Y-101006280D01*
X141317000Y-102873000D01*
X141337000Y-102873000D01*
X141337000Y-103127000D01*
X141317000Y-103127000D01*
X141317000Y-103147000D01*
X141063000Y-103147000D01*
X141063000Y-103127000D01*
X141043000Y-103127000D01*
X141043000Y-102873000D01*
X141063000Y-102873000D01*
X141063000Y-101006280D01*
X140846930Y-100883780D01*
X140772723Y-100898740D01*
X140291974Y-101160370D01*
X139947941Y-101586059D01*
X139930349Y-101645662D01*
X139637828Y-101207875D01*
X139561035Y-101156564D01*
X139633587Y-101142912D01*
X139849711Y-101003840D01*
X139994701Y-100791640D01*
X140004165Y-100744906D01*
X140103007Y-100725245D01*
X140357679Y-100555079D01*
X141427758Y-99485000D01*
X141477058Y-99604315D01*
M02*
