G04 #@! TF.FileFunction,Legend,Top*
%FSLAX46Y46*%
G04 Gerber Fmt 4.6, Leading zero omitted, Abs format (unit mm)*
G04 Created by KiCad (PCBNEW 4.0.1-stable) date 2016/04/10 17:27:39*
%MOMM*%
G01*
G04 APERTURE LIST*
%ADD10C,0.100000*%
%ADD11C,0.066040*%
%ADD12C,0.101600*%
%ADD13C,0.203200*%
%ADD14C,0.152400*%
%ADD15C,0.076200*%
%ADD16C,0.127000*%
%ADD17C,0.000001*%
G04 APERTURE END LIST*
D10*
D11*
X147702440Y-92398780D02*
X148050420Y-92398780D01*
X148050420Y-92398780D02*
X148050420Y-91601220D01*
X147702440Y-91601220D02*
X148050420Y-91601220D01*
X147702440Y-92398780D02*
X147702440Y-91601220D01*
X148949580Y-92398780D02*
X149297560Y-92398780D01*
X149297560Y-92398780D02*
X149297560Y-91601220D01*
X148949580Y-91601220D02*
X149297560Y-91601220D01*
X148949580Y-92398780D02*
X148949580Y-91601220D01*
X147100460Y-92797560D02*
X149899540Y-92797560D01*
X149899540Y-92797560D02*
X149899540Y-91202440D01*
X147100460Y-91202440D02*
X149899540Y-91202440D01*
X147100460Y-92797560D02*
X147100460Y-91202440D01*
D12*
X147776100Y-91652020D02*
X149223900Y-91652020D01*
X149223900Y-92347980D02*
X147776100Y-92347980D01*
D11*
X144797560Y-91601220D02*
X144449580Y-91601220D01*
X144449580Y-91601220D02*
X144449580Y-92398780D01*
X144797560Y-92398780D02*
X144449580Y-92398780D01*
X144797560Y-91601220D02*
X144797560Y-92398780D01*
X143550420Y-91601220D02*
X143202440Y-91601220D01*
X143202440Y-91601220D02*
X143202440Y-92398780D01*
X143550420Y-92398780D02*
X143202440Y-92398780D01*
X143550420Y-91601220D02*
X143550420Y-92398780D01*
X145399540Y-91202440D02*
X142600460Y-91202440D01*
X142600460Y-91202440D02*
X142600460Y-92797560D01*
X145399540Y-92797560D02*
X142600460Y-92797560D01*
X145399540Y-91202440D02*
X145399540Y-92797560D01*
D12*
X144723900Y-92347980D02*
X143276100Y-92347980D01*
X143276100Y-91652020D02*
X144723900Y-91652020D01*
D11*
X143201680Y-100197860D02*
X143201680Y-99247900D01*
X143201680Y-99247900D02*
X142901960Y-99247900D01*
X142901960Y-100197860D02*
X142901960Y-99247900D01*
X143201680Y-100197860D02*
X142901960Y-100197860D01*
X143851920Y-100197860D02*
X143851920Y-99247900D01*
X143851920Y-99247900D02*
X143552200Y-99247900D01*
X143552200Y-100197860D02*
X143552200Y-99247900D01*
X143851920Y-100197860D02*
X143552200Y-100197860D01*
X144502160Y-100197860D02*
X144502160Y-99247900D01*
X144502160Y-99247900D02*
X144202440Y-99247900D01*
X144202440Y-100197860D02*
X144202440Y-99247900D01*
X144502160Y-100197860D02*
X144202440Y-100197860D01*
X145149860Y-100197860D02*
X145149860Y-99247900D01*
X145149860Y-99247900D02*
X144850140Y-99247900D01*
X144850140Y-100197860D02*
X144850140Y-99247900D01*
X145149860Y-100197860D02*
X144850140Y-100197860D01*
X145797560Y-100197860D02*
X145797560Y-99247900D01*
X145797560Y-99247900D02*
X145497840Y-99247900D01*
X145497840Y-100197860D02*
X145497840Y-99247900D01*
X145797560Y-100197860D02*
X145497840Y-100197860D01*
X146447800Y-100197860D02*
X146447800Y-99247900D01*
X146447800Y-99247900D02*
X146148080Y-99247900D01*
X146148080Y-100197860D02*
X146148080Y-99247900D01*
X146447800Y-100197860D02*
X146148080Y-100197860D01*
X147098040Y-100197860D02*
X147098040Y-99247900D01*
X147098040Y-99247900D02*
X146798320Y-99247900D01*
X146798320Y-100197860D02*
X146798320Y-99247900D01*
X147098040Y-100197860D02*
X146798320Y-100197860D01*
X147098040Y-94752100D02*
X147098040Y-93802140D01*
X147098040Y-93802140D02*
X146798320Y-93802140D01*
X146798320Y-94752100D02*
X146798320Y-93802140D01*
X147098040Y-94752100D02*
X146798320Y-94752100D01*
X146447800Y-94752100D02*
X146447800Y-93802140D01*
X146447800Y-93802140D02*
X146148080Y-93802140D01*
X146148080Y-94752100D02*
X146148080Y-93802140D01*
X146447800Y-94752100D02*
X146148080Y-94752100D01*
X145797560Y-94752100D02*
X145797560Y-93802140D01*
X145797560Y-93802140D02*
X145497840Y-93802140D01*
X145497840Y-94752100D02*
X145497840Y-93802140D01*
X145797560Y-94752100D02*
X145497840Y-94752100D01*
X145149860Y-94752100D02*
X145149860Y-93802140D01*
X145149860Y-93802140D02*
X144850140Y-93802140D01*
X144850140Y-94752100D02*
X144850140Y-93802140D01*
X145149860Y-94752100D02*
X144850140Y-94752100D01*
X144502160Y-94752100D02*
X144502160Y-93802140D01*
X144502160Y-93802140D02*
X144202440Y-93802140D01*
X144202440Y-94752100D02*
X144202440Y-93802140D01*
X144502160Y-94752100D02*
X144202440Y-94752100D01*
X143851920Y-94752100D02*
X143851920Y-93802140D01*
X143851920Y-93802140D02*
X143552200Y-93802140D01*
X143552200Y-94752100D02*
X143552200Y-93802140D01*
X143851920Y-94752100D02*
X143552200Y-94752100D01*
X143201680Y-94752100D02*
X143201680Y-93802140D01*
X143201680Y-93802140D02*
X142901960Y-93802140D01*
X142901960Y-94752100D02*
X142901960Y-93802140D01*
X143201680Y-94752100D02*
X142901960Y-94752100D01*
D13*
X147446020Y-99146300D02*
X147446020Y-94853700D01*
X147446020Y-94853700D02*
X142553980Y-94853700D01*
X142553980Y-94853700D02*
X142553980Y-99146300D01*
X142553980Y-99146300D02*
X147446020Y-99146300D01*
X142553980Y-97599440D02*
G75*
G03X142553980Y-96400560I0J599440D01*
G01*
D11*
X148556000Y-103254000D02*
X149064000Y-103254000D01*
X149064000Y-103254000D02*
X149064000Y-102746000D01*
X148556000Y-102746000D02*
X149064000Y-102746000D01*
X148556000Y-103254000D02*
X148556000Y-102746000D01*
X146016000Y-103254000D02*
X146524000Y-103254000D01*
X146524000Y-103254000D02*
X146524000Y-102746000D01*
X146016000Y-102746000D02*
X146524000Y-102746000D01*
X146016000Y-103254000D02*
X146016000Y-102746000D01*
X143476000Y-103254000D02*
X143984000Y-103254000D01*
X143984000Y-103254000D02*
X143984000Y-102746000D01*
X143476000Y-102746000D02*
X143984000Y-102746000D01*
X143476000Y-103254000D02*
X143476000Y-102746000D01*
X140936000Y-103254000D02*
X141444000Y-103254000D01*
X141444000Y-103254000D02*
X141444000Y-102746000D01*
X140936000Y-102746000D02*
X141444000Y-102746000D01*
X140936000Y-103254000D02*
X140936000Y-102746000D01*
X138396000Y-103254000D02*
X138904000Y-103254000D01*
X138904000Y-103254000D02*
X138904000Y-102746000D01*
X138396000Y-102746000D02*
X138904000Y-102746000D01*
X138396000Y-103254000D02*
X138396000Y-102746000D01*
X151096000Y-103254000D02*
X151604000Y-103254000D01*
X151604000Y-103254000D02*
X151604000Y-102746000D01*
X151096000Y-102746000D02*
X151604000Y-102746000D01*
X151096000Y-103254000D02*
X151096000Y-102746000D01*
D14*
X145635000Y-101730000D02*
X146905000Y-101730000D01*
X146905000Y-101730000D02*
X147540000Y-102365000D01*
X147540000Y-102365000D02*
X147540000Y-103635000D01*
X147540000Y-103635000D02*
X146905000Y-104270000D01*
X147540000Y-102365000D02*
X148175000Y-101730000D01*
X148175000Y-101730000D02*
X149445000Y-101730000D01*
X149445000Y-101730000D02*
X150080000Y-102365000D01*
X150080000Y-102365000D02*
X150080000Y-103635000D01*
X150080000Y-103635000D02*
X149445000Y-104270000D01*
X149445000Y-104270000D02*
X148175000Y-104270000D01*
X148175000Y-104270000D02*
X147540000Y-103635000D01*
X142460000Y-102365000D02*
X143095000Y-101730000D01*
X143095000Y-101730000D02*
X144365000Y-101730000D01*
X144365000Y-101730000D02*
X145000000Y-102365000D01*
X145000000Y-102365000D02*
X145000000Y-103635000D01*
X145000000Y-103635000D02*
X144365000Y-104270000D01*
X144365000Y-104270000D02*
X143095000Y-104270000D01*
X143095000Y-104270000D02*
X142460000Y-103635000D01*
X145635000Y-101730000D02*
X145000000Y-102365000D01*
X145000000Y-103635000D02*
X145635000Y-104270000D01*
X146905000Y-104270000D02*
X145635000Y-104270000D01*
X138015000Y-101730000D02*
X139285000Y-101730000D01*
X139285000Y-101730000D02*
X139920000Y-102365000D01*
X139920000Y-102365000D02*
X139920000Y-103635000D01*
X139920000Y-103635000D02*
X139285000Y-104270000D01*
X139920000Y-102365000D02*
X140555000Y-101730000D01*
X140555000Y-101730000D02*
X141825000Y-101730000D01*
X141825000Y-101730000D02*
X142460000Y-102365000D01*
X142460000Y-102365000D02*
X142460000Y-103635000D01*
X142460000Y-103635000D02*
X141825000Y-104270000D01*
X141825000Y-104270000D02*
X140555000Y-104270000D01*
X140555000Y-104270000D02*
X139920000Y-103635000D01*
X137380000Y-102365000D02*
X137380000Y-103635000D01*
X138015000Y-101730000D02*
X137380000Y-102365000D01*
X137380000Y-103635000D02*
X138015000Y-104270000D01*
X139285000Y-104270000D02*
X138015000Y-104270000D01*
X150715000Y-101730000D02*
X151985000Y-101730000D01*
X151985000Y-101730000D02*
X152620000Y-102365000D01*
X152620000Y-102365000D02*
X152620000Y-103635000D01*
X152620000Y-103635000D02*
X151985000Y-104270000D01*
X150715000Y-101730000D02*
X150080000Y-102365000D01*
X150080000Y-103635000D02*
X150715000Y-104270000D01*
X151985000Y-104270000D02*
X150715000Y-104270000D01*
D11*
X138797560Y-99601220D02*
X138449580Y-99601220D01*
X138449580Y-99601220D02*
X138449580Y-100398780D01*
X138797560Y-100398780D02*
X138449580Y-100398780D01*
X138797560Y-99601220D02*
X138797560Y-100398780D01*
X137550420Y-99601220D02*
X137202440Y-99601220D01*
X137202440Y-99601220D02*
X137202440Y-100398780D01*
X137550420Y-100398780D02*
X137202440Y-100398780D01*
X137550420Y-99601220D02*
X137550420Y-100398780D01*
X139399540Y-99202440D02*
X136600460Y-99202440D01*
X136600460Y-99202440D02*
X136600460Y-100797560D01*
X139399540Y-100797560D02*
X136600460Y-100797560D01*
X139399540Y-99202440D02*
X139399540Y-100797560D01*
D12*
X138723900Y-100347980D02*
X137276100Y-100347980D01*
X137276100Y-99652020D02*
X138723900Y-99652020D01*
D11*
X138797560Y-97601220D02*
X138449580Y-97601220D01*
X138449580Y-97601220D02*
X138449580Y-98398780D01*
X138797560Y-98398780D02*
X138449580Y-98398780D01*
X138797560Y-97601220D02*
X138797560Y-98398780D01*
X137550420Y-97601220D02*
X137202440Y-97601220D01*
X137202440Y-97601220D02*
X137202440Y-98398780D01*
X137550420Y-98398780D02*
X137202440Y-98398780D01*
X137550420Y-97601220D02*
X137550420Y-98398780D01*
X139399540Y-97202440D02*
X136600460Y-97202440D01*
X136600460Y-97202440D02*
X136600460Y-98797560D01*
X139399540Y-98797560D02*
X136600460Y-98797560D01*
X139399540Y-97202440D02*
X139399540Y-98797560D01*
D12*
X138723900Y-98347980D02*
X137276100Y-98347980D01*
X137276100Y-97652020D02*
X138723900Y-97652020D01*
D11*
X138797560Y-95601220D02*
X138449580Y-95601220D01*
X138449580Y-95601220D02*
X138449580Y-96398780D01*
X138797560Y-96398780D02*
X138449580Y-96398780D01*
X138797560Y-95601220D02*
X138797560Y-96398780D01*
X137550420Y-95601220D02*
X137202440Y-95601220D01*
X137202440Y-95601220D02*
X137202440Y-96398780D01*
X137550420Y-96398780D02*
X137202440Y-96398780D01*
X137550420Y-95601220D02*
X137550420Y-96398780D01*
X139399540Y-95202440D02*
X136600460Y-95202440D01*
X136600460Y-95202440D02*
X136600460Y-96797560D01*
X139399540Y-96797560D02*
X136600460Y-96797560D01*
X139399540Y-95202440D02*
X139399540Y-96797560D01*
D12*
X138723900Y-96347980D02*
X137276100Y-96347980D01*
X137276100Y-95652020D02*
X138723900Y-95652020D01*
D11*
X151202440Y-100398780D02*
X151550420Y-100398780D01*
X151550420Y-100398780D02*
X151550420Y-99601220D01*
X151202440Y-99601220D02*
X151550420Y-99601220D01*
X151202440Y-100398780D02*
X151202440Y-99601220D01*
X152449580Y-100398780D02*
X152797560Y-100398780D01*
X152797560Y-100398780D02*
X152797560Y-99601220D01*
X152449580Y-99601220D02*
X152797560Y-99601220D01*
X152449580Y-100398780D02*
X152449580Y-99601220D01*
X150600460Y-100797560D02*
X153399540Y-100797560D01*
X153399540Y-100797560D02*
X153399540Y-99202440D01*
X150600460Y-99202440D02*
X153399540Y-99202440D01*
X150600460Y-100797560D02*
X150600460Y-99202440D01*
D12*
X151276100Y-99652020D02*
X152723900Y-99652020D01*
X152723900Y-100347980D02*
X151276100Y-100347980D01*
D11*
X151202440Y-98398780D02*
X151550420Y-98398780D01*
X151550420Y-98398780D02*
X151550420Y-97601220D01*
X151202440Y-97601220D02*
X151550420Y-97601220D01*
X151202440Y-98398780D02*
X151202440Y-97601220D01*
X152449580Y-98398780D02*
X152797560Y-98398780D01*
X152797560Y-98398780D02*
X152797560Y-97601220D01*
X152449580Y-97601220D02*
X152797560Y-97601220D01*
X152449580Y-98398780D02*
X152449580Y-97601220D01*
X150600460Y-98797560D02*
X153399540Y-98797560D01*
X153399540Y-98797560D02*
X153399540Y-97202440D01*
X150600460Y-97202440D02*
X153399540Y-97202440D01*
X150600460Y-98797560D02*
X150600460Y-97202440D01*
D12*
X151276100Y-97652020D02*
X152723900Y-97652020D01*
X152723900Y-98347980D02*
X151276100Y-98347980D01*
D11*
X151202440Y-96398780D02*
X151550420Y-96398780D01*
X151550420Y-96398780D02*
X151550420Y-95601220D01*
X151202440Y-95601220D02*
X151550420Y-95601220D01*
X151202440Y-96398780D02*
X151202440Y-95601220D01*
X152449580Y-96398780D02*
X152797560Y-96398780D01*
X152797560Y-96398780D02*
X152797560Y-95601220D01*
X152449580Y-95601220D02*
X152797560Y-95601220D01*
X152449580Y-96398780D02*
X152449580Y-95601220D01*
X150600460Y-96797560D02*
X153399540Y-96797560D01*
X153399540Y-96797560D02*
X153399540Y-95202440D01*
X150600460Y-95202440D02*
X153399540Y-95202440D01*
X150600460Y-96797560D02*
X150600460Y-95202440D01*
D12*
X151276100Y-95652020D02*
X152723900Y-95652020D01*
X152723900Y-96347980D02*
X151276100Y-96347980D01*
D15*
X146862857Y-92169333D02*
X146911238Y-92217714D01*
X146959619Y-92362857D01*
X146959619Y-92459619D01*
X146911238Y-92604761D01*
X146814476Y-92701523D01*
X146717714Y-92749904D01*
X146524190Y-92798285D01*
X146379048Y-92798285D01*
X146185524Y-92749904D01*
X146088762Y-92701523D01*
X145992000Y-92604761D01*
X145943619Y-92459619D01*
X145943619Y-92362857D01*
X145992000Y-92217714D01*
X146040381Y-92169333D01*
X146959619Y-91201714D02*
X146959619Y-91782285D01*
X146959619Y-91491999D02*
X145943619Y-91491999D01*
X146088762Y-91588761D01*
X146185524Y-91685523D01*
X146233905Y-91782285D01*
X141330667Y-91862857D02*
X141282286Y-91911238D01*
X141137143Y-91959619D01*
X141040381Y-91959619D01*
X140895239Y-91911238D01*
X140798477Y-91814476D01*
X140750096Y-91717714D01*
X140701715Y-91524190D01*
X140701715Y-91379048D01*
X140750096Y-91185524D01*
X140798477Y-91088762D01*
X140895239Y-90992000D01*
X141040381Y-90943619D01*
X141137143Y-90943619D01*
X141282286Y-90992000D01*
X141330667Y-91040381D01*
X141717715Y-91040381D02*
X141766096Y-90992000D01*
X141862858Y-90943619D01*
X142104762Y-90943619D01*
X142201524Y-90992000D01*
X142249905Y-91040381D01*
X142298286Y-91137143D01*
X142298286Y-91233905D01*
X142249905Y-91379048D01*
X141669334Y-91959619D01*
X142298286Y-91959619D01*
D12*
X149074524Y-98239762D02*
X147804524Y-98239762D01*
X148953571Y-96909286D02*
X149014048Y-96969762D01*
X149074524Y-97151191D01*
X149074524Y-97272143D01*
X149014048Y-97453571D01*
X148893095Y-97574524D01*
X148772143Y-97635000D01*
X148530238Y-97695476D01*
X148348810Y-97695476D01*
X148106905Y-97635000D01*
X147985952Y-97574524D01*
X147865000Y-97453571D01*
X147804524Y-97272143D01*
X147804524Y-97151191D01*
X147865000Y-96969762D01*
X147925476Y-96909286D01*
X149074524Y-95699762D02*
X149074524Y-96425476D01*
X149074524Y-96062619D02*
X147804524Y-96062619D01*
X147985952Y-96183571D01*
X148106905Y-96304524D01*
X148167381Y-96425476D01*
D16*
X135804524Y-103558333D02*
X136711667Y-103558333D01*
X136893095Y-103618809D01*
X137014048Y-103739761D01*
X137074524Y-103921190D01*
X137074524Y-104042142D01*
X137074524Y-102953571D02*
X135804524Y-102953571D01*
X135804524Y-102469762D01*
X135865000Y-102348809D01*
X135925476Y-102288333D01*
X136046429Y-102227857D01*
X136227857Y-102227857D01*
X136348810Y-102288333D01*
X136409286Y-102348809D01*
X136469762Y-102469762D01*
X136469762Y-102953571D01*
X137074524Y-101018333D02*
X137074524Y-101744047D01*
X137074524Y-101381190D02*
X135804524Y-101381190D01*
X135985952Y-101502142D01*
X136106905Y-101623095D01*
X136167381Y-101744047D01*
D15*
X140959619Y-100169333D02*
X140475810Y-100507999D01*
X140959619Y-100749904D02*
X139943619Y-100749904D01*
X139943619Y-100362857D01*
X139992000Y-100266095D01*
X140040381Y-100217714D01*
X140137143Y-100169333D01*
X140282286Y-100169333D01*
X140379048Y-100217714D01*
X140427429Y-100266095D01*
X140475810Y-100362857D01*
X140475810Y-100749904D01*
X140959619Y-99201714D02*
X140959619Y-99782285D01*
X140959619Y-99491999D02*
X139943619Y-99491999D01*
X140088762Y-99588761D01*
X140185524Y-99685523D01*
X140233905Y-99782285D01*
X140959619Y-98169333D02*
X140475810Y-98507999D01*
X140959619Y-98749904D02*
X139943619Y-98749904D01*
X139943619Y-98362857D01*
X139992000Y-98266095D01*
X140040381Y-98217714D01*
X140137143Y-98169333D01*
X140282286Y-98169333D01*
X140379048Y-98217714D01*
X140427429Y-98266095D01*
X140475810Y-98362857D01*
X140475810Y-98749904D01*
X140040381Y-97782285D02*
X139992000Y-97733904D01*
X139943619Y-97637142D01*
X139943619Y-97395238D01*
X139992000Y-97298476D01*
X140040381Y-97250095D01*
X140137143Y-97201714D01*
X140233905Y-97201714D01*
X140379048Y-97250095D01*
X140959619Y-97830666D01*
X140959619Y-97201714D01*
X140959619Y-96169333D02*
X140475810Y-96507999D01*
X140959619Y-96749904D02*
X139943619Y-96749904D01*
X139943619Y-96362857D01*
X139992000Y-96266095D01*
X140040381Y-96217714D01*
X140137143Y-96169333D01*
X140282286Y-96169333D01*
X140379048Y-96217714D01*
X140427429Y-96266095D01*
X140475810Y-96362857D01*
X140475810Y-96749904D01*
X139943619Y-95830666D02*
X139943619Y-95201714D01*
X140330667Y-95540380D01*
X140330667Y-95395238D01*
X140379048Y-95298476D01*
X140427429Y-95250095D01*
X140524190Y-95201714D01*
X140766095Y-95201714D01*
X140862857Y-95250095D01*
X140911238Y-95298476D01*
X140959619Y-95395238D01*
X140959619Y-95685523D01*
X140911238Y-95782285D01*
X140862857Y-95830666D01*
X150459619Y-100169333D02*
X149975810Y-100507999D01*
X150459619Y-100749904D02*
X149443619Y-100749904D01*
X149443619Y-100362857D01*
X149492000Y-100266095D01*
X149540381Y-100217714D01*
X149637143Y-100169333D01*
X149782286Y-100169333D01*
X149879048Y-100217714D01*
X149927429Y-100266095D01*
X149975810Y-100362857D01*
X149975810Y-100749904D01*
X149782286Y-99298476D02*
X150459619Y-99298476D01*
X149395238Y-99540380D02*
X150120952Y-99782285D01*
X150120952Y-99153333D01*
X150459619Y-98169333D02*
X149975810Y-98507999D01*
X150459619Y-98749904D02*
X149443619Y-98749904D01*
X149443619Y-98362857D01*
X149492000Y-98266095D01*
X149540381Y-98217714D01*
X149637143Y-98169333D01*
X149782286Y-98169333D01*
X149879048Y-98217714D01*
X149927429Y-98266095D01*
X149975810Y-98362857D01*
X149975810Y-98749904D01*
X149443619Y-97250095D02*
X149443619Y-97733904D01*
X149927429Y-97782285D01*
X149879048Y-97733904D01*
X149830667Y-97637142D01*
X149830667Y-97395238D01*
X149879048Y-97298476D01*
X149927429Y-97250095D01*
X150024190Y-97201714D01*
X150266095Y-97201714D01*
X150362857Y-97250095D01*
X150411238Y-97298476D01*
X150459619Y-97395238D01*
X150459619Y-97637142D01*
X150411238Y-97733904D01*
X150362857Y-97782285D01*
X150459619Y-96169333D02*
X149975810Y-96507999D01*
X150459619Y-96749904D02*
X149443619Y-96749904D01*
X149443619Y-96362857D01*
X149492000Y-96266095D01*
X149540381Y-96217714D01*
X149637143Y-96169333D01*
X149782286Y-96169333D01*
X149879048Y-96217714D01*
X149927429Y-96266095D01*
X149975810Y-96362857D01*
X149975810Y-96749904D01*
X149443619Y-95298476D02*
X149443619Y-95491999D01*
X149492000Y-95588761D01*
X149540381Y-95637142D01*
X149685524Y-95733904D01*
X149879048Y-95782285D01*
X150266095Y-95782285D01*
X150362857Y-95733904D01*
X150411238Y-95685523D01*
X150459619Y-95588761D01*
X150459619Y-95395238D01*
X150411238Y-95298476D01*
X150362857Y-95250095D01*
X150266095Y-95201714D01*
X150024190Y-95201714D01*
X149927429Y-95250095D01*
X149879048Y-95298476D01*
X149830667Y-95395238D01*
X149830667Y-95588761D01*
X149879048Y-95685523D01*
X149927429Y-95733904D01*
X150024190Y-95782285D01*
D12*
X139897381Y-92304524D02*
X140623096Y-92304524D01*
X140260239Y-93574524D02*
X140260239Y-92304524D01*
X141046429Y-93574524D02*
X141046429Y-92304524D01*
X141530238Y-92304524D01*
X141651191Y-92365000D01*
X141711667Y-92425476D01*
X141772143Y-92546429D01*
X141772143Y-92727857D01*
X141711667Y-92848810D01*
X141651191Y-92909286D01*
X141530238Y-92969762D01*
X141046429Y-92969762D01*
X142981667Y-93574524D02*
X142255953Y-93574524D01*
X142618810Y-93574524D02*
X142618810Y-92304524D01*
X142497858Y-92485952D01*
X142376905Y-92606905D01*
X142255953Y-92667381D01*
D17*
X140476277Y-95108390D02*
X140490791Y-95108390D01*
X140483534Y-95133790D02*
X140483534Y-95108390D01*
X140499258Y-95133790D02*
X140499258Y-95108390D01*
X140508934Y-95108390D01*
X140511353Y-95109600D01*
X140512562Y-95110810D01*
X140513772Y-95113229D01*
X140513772Y-95116857D01*
X140512562Y-95119276D01*
X140511353Y-95120486D01*
X140508934Y-95121695D01*
X140499258Y-95121695D01*
X140521029Y-95108390D02*
X140535543Y-95108390D01*
X140528286Y-95133790D02*
X140528286Y-95108390D01*
X140544010Y-95133790D02*
X140544010Y-95108390D01*
X140553686Y-95108390D01*
X140556105Y-95109600D01*
X140557314Y-95110810D01*
X140558524Y-95113229D01*
X140558524Y-95116857D01*
X140557314Y-95119276D01*
X140556105Y-95120486D01*
X140553686Y-95121695D01*
X140544010Y-95121695D01*
X140568200Y-95110810D02*
X140569410Y-95109600D01*
X140571829Y-95108390D01*
X140577876Y-95108390D01*
X140580295Y-95109600D01*
X140581505Y-95110810D01*
X140582714Y-95113229D01*
X140582714Y-95115648D01*
X140581505Y-95119276D01*
X140566991Y-95133790D01*
X140582714Y-95133790D01*
X140598438Y-95108390D02*
X140600857Y-95108390D01*
X140603276Y-95109600D01*
X140604485Y-95110810D01*
X140605695Y-95113229D01*
X140606904Y-95118067D01*
X140606904Y-95124114D01*
X140605695Y-95128952D01*
X140604485Y-95131371D01*
X140603276Y-95132581D01*
X140600857Y-95133790D01*
X140598438Y-95133790D01*
X140596019Y-95132581D01*
X140594809Y-95131371D01*
X140593600Y-95128952D01*
X140592390Y-95124114D01*
X140592390Y-95118067D01*
X140593600Y-95113229D01*
X140594809Y-95110810D01*
X140596019Y-95109600D01*
X140598438Y-95108390D01*
X140616580Y-95132581D02*
X140620209Y-95133790D01*
X140626256Y-95133790D01*
X140628675Y-95132581D01*
X140629885Y-95131371D01*
X140631094Y-95128952D01*
X140631094Y-95126533D01*
X140629885Y-95124114D01*
X140628675Y-95122905D01*
X140626256Y-95121695D01*
X140621418Y-95120486D01*
X140618999Y-95119276D01*
X140617790Y-95118067D01*
X140616580Y-95115648D01*
X140616580Y-95113229D01*
X140617790Y-95110810D01*
X140618999Y-95109600D01*
X140621418Y-95108390D01*
X140627466Y-95108390D01*
X140631094Y-95109600D01*
X140658913Y-95136210D02*
X140656494Y-95135000D01*
X140654075Y-95132581D01*
X140650446Y-95128952D01*
X140648027Y-95127743D01*
X140645608Y-95127743D01*
X140646818Y-95133790D02*
X140644399Y-95132581D01*
X140641980Y-95130162D01*
X140640770Y-95125324D01*
X140640770Y-95116857D01*
X140641980Y-95112019D01*
X140644399Y-95109600D01*
X140646818Y-95108390D01*
X140651656Y-95108390D01*
X140654075Y-95109600D01*
X140656494Y-95112019D01*
X140657703Y-95116857D01*
X140657703Y-95125324D01*
X140656494Y-95130162D01*
X140654075Y-95132581D01*
X140651656Y-95133790D01*
X140646818Y-95133790D01*
M02*
