G04 #@! TF.FileFunction,Copper,L2,Bot,Signal*
%FSLAX46Y46*%
G04 Gerber Fmt 4.6, Leading zero omitted, Abs format (unit mm)*
G04 Created by KiCad (PCBNEW 4.0.1-stable) date 2016/04/10 17:27:39*
%MOMM*%
G01*
G04 APERTURE LIST*
%ADD10C,0.100000*%
%ADD11O,1.524000X3.048000*%
%ADD12C,0.800000*%
%ADD13C,0.300000*%
%ADD14C,0.500000*%
%ADD15C,0.254000*%
G04 APERTURE END LIST*
D10*
D11*
X138650000Y-103000000D03*
X141190000Y-103000000D03*
X143730000Y-103000000D03*
X146270000Y-103000000D03*
X148810000Y-103000000D03*
X151350000Y-103000000D03*
D12*
X144250800Y-95236500D03*
X142355000Y-99018800D03*
X144608200Y-98762000D03*
X146101500Y-95232300D03*
X150250000Y-95000000D03*
D13*
X138650000Y-100837300D02*
X138650000Y-103000000D01*
X144250800Y-95236500D02*
X138650000Y-100837300D01*
D14*
X146270000Y-103000000D02*
X146270000Y-102188000D01*
D13*
X143100800Y-99018800D02*
X142355000Y-99018800D01*
X146270000Y-102188000D02*
X143100800Y-99018800D01*
X148810000Y-103000000D02*
X148810000Y-101071700D01*
X146917900Y-101071700D02*
X144608200Y-98762000D01*
X148810000Y-101071700D02*
X146917900Y-101071700D01*
X149906500Y-95232300D02*
X146101500Y-95232300D01*
X150250000Y-95000000D02*
X149906500Y-95232300D01*
D15*
G36*
X141477058Y-99604315D02*
X141767954Y-99895719D01*
X142148223Y-100053620D01*
X142559971Y-100053979D01*
X142889615Y-99917773D01*
X143780612Y-100808770D01*
X143730000Y-100798703D01*
X143195391Y-100905043D01*
X142742172Y-101207875D01*
X142449651Y-101645662D01*
X142432059Y-101586059D01*
X142088026Y-101160370D01*
X141607277Y-100898740D01*
X141533070Y-100883780D01*
X141317000Y-101006280D01*
X141317000Y-102873000D01*
X141337000Y-102873000D01*
X141337000Y-103127000D01*
X141317000Y-103127000D01*
X141317000Y-103147000D01*
X141063000Y-103147000D01*
X141063000Y-103127000D01*
X141043000Y-103127000D01*
X141043000Y-102873000D01*
X141063000Y-102873000D01*
X141063000Y-101006280D01*
X140846930Y-100883780D01*
X140772723Y-100898740D01*
X140291974Y-101160370D01*
X139947941Y-101586059D01*
X139930349Y-101645662D01*
X139637828Y-101207875D01*
X139489016Y-101108442D01*
X141335570Y-99261888D01*
X141477058Y-99604315D01*
X141477058Y-99604315D01*
G37*
X141477058Y-99604315D02*
X141767954Y-99895719D01*
X142148223Y-100053620D01*
X142559971Y-100053979D01*
X142889615Y-99917773D01*
X143780612Y-100808770D01*
X143730000Y-100798703D01*
X143195391Y-100905043D01*
X142742172Y-101207875D01*
X142449651Y-101645662D01*
X142432059Y-101586059D01*
X142088026Y-101160370D01*
X141607277Y-100898740D01*
X141533070Y-100883780D01*
X141317000Y-101006280D01*
X141317000Y-102873000D01*
X141337000Y-102873000D01*
X141337000Y-103127000D01*
X141317000Y-103127000D01*
X141317000Y-103147000D01*
X141063000Y-103147000D01*
X141063000Y-103127000D01*
X141043000Y-103127000D01*
X141043000Y-102873000D01*
X141063000Y-102873000D01*
X141063000Y-101006280D01*
X140846930Y-100883780D01*
X140772723Y-100898740D01*
X140291974Y-101160370D01*
X139947941Y-101586059D01*
X139930349Y-101645662D01*
X139637828Y-101207875D01*
X139489016Y-101108442D01*
X141335570Y-99261888D01*
X141477058Y-99604315D01*
M02*
